<?xml version="1.0" encoding="UTF-8" standalone="no"?>
<svg id="svg2" xmlns:sketch="http://www.bohemiancoding.com/sketch/ns" xmlns:rdf="http://www.w3.org/1999/02/22-rdf-syntax-ns#" height="256px" xmlns="http://www.w3.org/2000/svg" viewBox="0 0 998 256" width="998px" version="1.1" xmlns:cc="http://creativecommons.org/ns#" xmlns:dc="http://purl.org/dc/elements/1.1/">
	<title id="title4">woodhouse title</title>
	<g id="Page-1" fill-rule="evenodd" fill="none" sketch:type="MSPage">
		<g id="title-(text-caps)" sketch:type="MSArtboardGroup">
			<g id="house" stroke-linejoin="round" transform="translate(0 28)" sketch:type="MSLayerGroup" stroke="#000" stroke-width="12">
				<path id="Path-11" d="m32 80l88-55 88 55" sketch:type="MSShapeGroup" stroke-linecap="square"/>
				<path id="Path-12" d="m60 90l10 90 50-60 51 60 9-90" sketch:type="MSShapeGroup" stroke-linecap="square"/>
				<path id="Path-13" d="m160 49v-19h20v32" sketch:type="MSShapeGroup" stroke-linecap="round"/>
			</g>
			<g id="OODHOUSE" fill="#000">
				<path id="path4145" d="m298.66 162.22q0 10.968-3.4744 20.165-3.4744 9.1288-9.81 15.737-6.3356 6.6081-15.26 10.287-8.8562 3.6106-19.62 3.6106t-19.62-3.6106q-8.8562-3.6788-15.192-10.287-6.3356-6.6081-9.81-15.737-3.4744-9.1969-3.4744-20.165t3.4744-20.097q3.4744-9.1969 9.81-15.805 6.3356-6.6762 15.192-10.355 8.8562-3.6788 19.62-3.6788t19.62 3.6788q8.9244 3.6788 15.26 10.355 6.3356 6.6081 9.81 15.805 3.4744 9.1288 3.4744 20.097zm-13.557 0q0-8.9925-2.4525-16.146-2.4525-7.1531-6.9488-12.058-4.4962-4.9731-10.9-7.63t-14.306-2.6569q-7.8344 0-14.238 2.6569-6.4038 2.6569-10.968 7.63-4.4962 4.905-6.9488 12.058-2.4525 7.1531-2.4525 16.146 0 8.9925 2.4525 16.146 2.4525 7.085 6.9488 12.058 4.5644 4.905 10.968 7.5619 6.4038 2.5888 14.238 2.5888 7.9025 0 14.306-2.5888 6.4038-2.6569 10.9-7.5619 4.4962-4.9731 6.9488-12.058 2.4525-7.1531 2.4525-16.146z"/>
				<path id="path4147" d="m407.77 162.22q0 10.968-3.4744 20.165-3.4744 9.1288-9.81 15.737-6.3356 6.6081-15.26 10.287-8.8562 3.6106-19.62 3.6106t-19.62-3.6106q-8.8562-3.6788-15.192-10.287-6.3356-6.6081-9.81-15.737-3.4744-9.1969-3.4744-20.165t3.4744-20.097q3.4744-9.1969 9.81-15.805 6.3356-6.6762 15.192-10.355 8.8562-3.6788 19.62-3.6788t19.62 3.6788q8.9244 3.6788 15.26 10.355 6.3356 6.6081 9.81 15.805 3.4744 9.1288 3.4744 20.097zm-13.557 0q0-8.9925-2.4525-16.146-2.4525-7.1531-6.9488-12.058-4.4962-4.9731-10.9-7.63t-14.306-2.6569q-7.8344 0-14.238 2.6569-6.4038 2.6569-10.968 7.63-4.4962 4.905-6.9488 12.058-2.4525 7.1531-2.4525 16.146 0 8.9925 2.4525 16.146 2.4525 7.085 6.9488 12.058 4.5644 4.905 10.968 7.5619 6.4038 2.5888 14.238 2.5888 7.9025 0 14.306-2.5888 6.4038-2.6569 10.9-7.5619 4.4962-4.9731 6.9488-12.058 2.4525-7.1531 2.4525-16.146z"/>
				<path id="path4149" d="m511.29 162.22q0 10.968-3.4744 19.961-3.4744 8.9925-9.81 15.396-6.3356 6.4038-15.26 9.9462-8.8562 3.4744-19.62 3.4744h-36.447v-97.623h36.447q10.764 0 19.62 3.5425 8.9244 3.4744 15.26 9.9462 6.3356 6.4038 9.81 15.396 3.4744 8.9925 3.4744 19.961zm-13.557 0q0-8.9925-2.4525-16.078-2.4525-7.085-6.9488-11.99-4.4962-4.905-10.9-7.4938t-14.306-2.5888h-23.231v76.232h23.231q7.9025 0 14.306-2.5888 6.4038-2.5888 10.9-7.4256 4.4962-4.905 6.9488-11.99 2.4525-7.085 2.4525-16.078z"/>
				<path id="path4151" d="m609.56 113.38v97.623h-13.216v-44.418h-52.661v44.418h-13.216v-97.623h13.216v43.532h52.661v-43.532h13.216z"/>
				<path id="path4153" d="m724.71 162.22q0 10.968-3.4744 20.165-3.4744 9.1288-9.81 15.737-6.3356 6.6081-15.26 10.287-8.8562 3.6106-19.62 3.6106t-19.62-3.6106q-8.8562-3.6788-15.192-10.287-6.3356-6.6081-9.81-15.737-3.4744-9.1969-3.4744-20.165t3.4744-20.097q3.4744-9.1969 9.81-15.805 6.3356-6.6762 15.192-10.355 8.8562-3.6788 19.62-3.6788t19.62 3.6788q8.9244 3.6788 15.26 10.355 6.3356 6.6081 9.81 15.805 3.4744 9.1288 3.4744 20.097zm-13.557 0q0-8.9925-2.4525-16.146-2.4525-7.1531-6.9488-12.058-4.4962-4.9731-10.9-7.63t-14.306-2.6569q-7.8344 0-14.238 2.6569-6.4038 2.6569-10.968 7.63-4.4962 4.905-6.9488 12.058-2.4525 7.1531-2.4525 16.146 0 8.9925 2.4525 16.146 2.4525 7.085 6.9488 12.058 4.5644 4.905 10.968 7.5619 6.4038 2.5888 14.238 2.5888 7.9025 0 14.306-2.5888 6.4038-2.6569 10.9-7.5619 4.4962-4.9731 6.9488-12.058 2.4525-7.1531 2.4525-16.146z"/>
				<path id="path4155" d="m781.29 200.51q6.0631 0 10.832-2.0438 4.7688-2.0438 8.0388-5.7225 3.3381-3.6788 5.0412-8.7881 1.7712-5.1094 1.7712-11.241v-59.337h13.148v59.337q0 8.4475-2.725 15.669-2.6569 7.2212-7.6981 12.535-4.9731 5.2456-12.194 8.2431-7.2212 2.9975-16.214 2.9975-8.9925 0-16.214-2.9975-7.2212-2.9975-12.262-8.2431-5.0412-5.3138-7.7662-12.535-2.6569-7.2212-2.6569-15.669v-59.337h13.148v59.269q0 6.1312 1.7031 11.241 1.7712 5.1094 5.0412 8.7881 3.3381 3.6788 8.1069 5.7906 4.8369 2.0438 10.9 2.0438z"/>
				<path id="path4157" d="m893.61 128.64q-0.61312 1.0219-1.3625 1.5669-0.68125 0.47687-1.7031 0.47687-1.1581 0-2.725-1.1581t-3.9512-2.5206q-2.3162-1.4306-5.6544-2.5888-3.27-1.1581-7.9706-1.1581-4.4281 0-7.8344 1.2262-3.3381 1.1581-5.6544 3.2019-2.2481 2.0438-3.4062 4.8369-1.1581 2.725-1.1581 5.9269 0 4.0875 1.9756 6.8125 2.0438 2.6569 5.3138 4.5644 3.3381 1.9075 7.4938 3.3381 4.2238 1.3625 8.5838 2.8612 4.4281 1.4988 8.5838 3.4062 4.2238 1.8394 7.4938 4.7006 3.3381 2.8612 5.3138 7.0169 2.0438 4.1556 2.0438 10.219 0 6.4038-2.18 12.058-2.18 5.5862-6.4038 9.7419-4.1556 4.1556-10.287 6.54-6.0631 2.3844-13.829 2.3844-9.5375 0-17.304-3.4062-7.7662-3.4744-13.284-9.3331l3.815-6.2675q0.545-0.74937 1.2944-1.2262 0.8175-0.545 1.7712-0.545 0.88562 0 1.9756 0.74938 1.1581 0.68125 2.5888 1.7712 1.4306 1.09 3.27 2.3844t4.1556 2.3844q2.3844 1.09 5.3819 1.8394 2.9975 0.68125 6.7444 0.68125 4.7006 0 8.3794-1.2944t6.1994-3.6106q2.5888-2.3844 3.9512-5.6544 1.3625-3.27 1.3625-7.2894 0-4.4281-2.0438-7.2212-1.9756-2.8612-5.2456-4.7688-3.27-1.9075-7.4938-3.2019-4.2238-1.3625-8.5838-2.725-4.36-1.4306-8.5838-3.27t-7.4938-4.7688-5.3138-7.2894q-1.9756-4.4281-1.9756-10.9 0-5.1775 1.9756-10.014 2.0438-4.8369 5.8588-8.5838 3.8831-3.7469 9.4694-5.995 5.6544-2.2481 12.944-2.2481 8.175 0 14.851 2.5888 6.7444 2.5888 11.854 7.4938l-3.2019 6.2675z"/>
				<path id="path4159" d="m977.88 200.24-0.0681 10.764h-60.154v-97.623h60.154v10.764h-46.938v32.428h38.014v10.355h-38.014v33.313h47.006z"/>
			</g>
		</g>
	</g>
</svg>
