<?xml version="1.0" encoding="UTF-8" standalone="no"?>
<svg id="svg2" xmlns:sketch="http://www.bohemiancoding.com/sketch/ns" xmlns:rdf="http://www.w3.org/1999/02/22-rdf-syntax-ns#" xmlns="http://www.w3.org/2000/svg" height="256px" width="998px" version="1.1" xmlns:cc="http://creativecommons.org/ns#" viewBox="0 0 998 256" xmlns:dc="http://purl.org/dc/elements/1.1/">
	<title id="title4">woodhouse title</title>
	<g id="Page-1" fill-rule="evenodd" sketch:type="MSPage" fill="none">
		<g id="title-(text-caps)" sketch:type="MSArtboardGroup">
			<g id="house" stroke-linejoin="round" transform="translate(0 28)" sketch:type="MSLayerGroup" stroke="#000" stroke-width="7">
				<path id="Path-11" d="m32 80l88-55 88 55" sketch:type="MSShapeGroup" stroke-linecap="square"/>
				<path id="Path-12" d="m60 90l10 90 50-60 51 60 9-90" sketch:type="MSShapeGroup" stroke-linecap="square"/>
				<path id="Path-13" d="m160 49v-19h20v32" sketch:type="MSShapeGroup" stroke-linecap="round"/>
			</g>
			<g id="OODHOUSE" fill="#000">
				<path id="path4152" d="m295.87 162.77q0 11.172-3.3381 20.301-3.3381 9.0606-9.4012 15.532-6.0631 6.4038-14.579 9.9462-8.4475 3.4744-18.666 3.4744-10.219 0-18.666-3.4744-8.4475-3.5425-14.511-9.9462-6.0631-6.4719-9.4012-15.532-3.3381-9.1288-3.3381-20.301 0-11.104 3.3381-20.165 3.3381-9.1288 9.4012-15.532 6.0631-6.4719 14.511-10.014 8.4475-3.5425 18.666-3.5425 10.219 0 18.666 3.5425 8.5156 3.4744 14.579 9.9462 6.0631 6.4719 9.4012 15.601 3.3381 9.0606 3.3381 20.165zm-7.2212 0q0-10.082-2.7931-18.121-2.7931-8.0388-7.9025-13.625t-12.263-8.5156q-7.1531-2.9975-15.805-2.9975-8.5838 0-15.737 2.9975-7.1531 2.9294-12.331 8.5156-5.1094 5.5862-7.9706 13.625-2.7931 8.0388-2.7931 18.121 0 10.151 2.7931 18.189 2.8612 7.9706 7.9706 13.557 5.1775 5.5862 12.331 8.5156 7.1531 2.9294 15.737 2.9294 8.6519 0 15.805-2.9294t12.263-8.5156q5.1094-5.5862 7.9025-13.557 2.79-8.04 2.79-18.19z"/>
				<path id="path4154" d="m403.65 162.77q0 11.172-3.3381 20.301-3.3381 9.0606-9.4012 15.532-6.0631 6.4038-14.579 9.9462-8.4475 3.4744-18.666 3.4744-10.219 0-18.666-3.4744-8.4475-3.5425-14.511-9.9462-6.0631-6.4719-9.4012-15.532-3.3381-9.1288-3.3381-20.301 0-11.104 3.3381-20.165 3.3381-9.1288 9.4012-15.532 6.0631-6.4719 14.511-10.014 8.4475-3.5425 18.666-3.5425 10.219 0 18.666 3.5425 8.5156 3.4744 14.579 9.9462 6.0631 6.4719 9.4012 15.601 3.3381 9.0606 3.3381 20.165zm-7.2212 0q0-10.082-2.7931-18.121-2.7931-8.0388-7.9025-13.625t-12.262-8.5156q-7.1531-2.9975-15.805-2.9975-8.5838 0-15.737 2.9975-7.1531 2.9294-12.331 8.5156-5.1094 5.5862-7.9706 13.625-2.7931 8.0388-2.7931 18.121 0 10.151 2.7931 18.189 2.8612 7.9706 7.9706 13.557 5.1775 5.5862 12.331 8.5156 7.1531 2.9294 15.737 2.9294 8.6519 0 15.805-2.9294t12.262-8.5156q5.1094-5.5862 7.9025-13.557 2.7931-8.0388 2.7931-18.189z"/>
				<path id="path4156" d="m506.99 162.77q0 11.172-3.3381 20.097-3.3381 8.9244-9.4012 15.192-6.0631 6.2675-14.579 9.6056-8.4475 3.3381-18.666 3.3381h-35.221v-96.397h35.221q10.219 0 18.666 3.3381 8.5156 3.3381 14.579 9.6056 6.0631 6.2675 9.4012 15.192 3.3381 8.9244 3.3381 20.029zm-7.2212 0q0-10.082-2.7931-17.985-2.7931-7.9025-7.9025-13.352-5.1094-5.45-12.262-8.3112-7.1531-2.8612-15.805-2.8612h-28.204v85.088h28.204q8.6519 0 15.805-2.8612t12.262-8.3112q5.1094-5.45 7.9025-13.352 2.7931-7.9025 2.7931-18.053z"/>
				<path id="path4158" d="m603.43 114.6v96.397h-7.0169v-46.189h-60.359v46.189h-7.0169v-96.397h7.0169v44.962h60.359v-44.962h7.0169z"/>
				<path id="path4160" d="m717.39 162.77q0 11.172-3.3381 20.301-3.3381 9.0606-9.4012 15.532-6.0631 6.4038-14.579 9.9462-8.4475 3.4744-18.666 3.4744-10.219 0-18.666-3.4744-8.4475-3.5425-14.511-9.9462-6.0631-6.4719-9.4012-15.532-3.3381-9.1288-3.3381-20.301 0-11.104 3.3381-20.165 3.3381-9.1288 9.4012-15.532 6.0631-6.4719 14.511-10.014 8.4475-3.5425 18.666-3.5425 10.219 0 18.666 3.5425 8.5156 3.4744 14.579 9.9462 6.0631 6.4719 9.4012 15.601 3.3381 9.0606 3.3381 20.165zm-7.2212 0q0-10.082-2.7931-18.121-2.7931-8.0388-7.9025-13.625t-12.262-8.5156q-7.1531-2.9975-15.805-2.9975-8.5838 0-15.737 2.9975-7.1531 2.9294-12.331 8.5156-5.1094 5.5862-7.9706 13.625-2.7931 8.0388-2.7931 18.121 0 10.151 2.7931 18.189 2.8612 7.9706 7.9706 13.557 5.1775 5.5862 12.331 8.5156 7.1531 2.9294 15.737 2.9294 8.6519 0 15.805-2.9294t12.262-8.5156q5.1094-5.5862 7.9025-13.557 2.7931-8.0388 2.7931-18.189z"/>
				<path id="path4162" d="m774.83 206.03q6.9488 0 12.399-2.3844 5.5181-2.4525 9.3331-6.7444t5.7906-10.082q2.0438-5.8588 2.0438-12.603v-59.609h6.9488v59.609q0 7.9706-2.5206 14.919-2.5206 6.8806-7.2894 12.058-4.7006 5.1094-11.513 8.0388-6.7444 2.9294-15.192 2.9294-8.4475 0-15.26-2.9294-6.7444-2.9294-11.513-8.0388-4.7006-5.1775-7.2212-12.058-2.5206-6.9488-2.5206-14.919v-59.609h7.0169v59.541q0 6.7444 1.9756 12.603 2.0438 5.7906 5.7906 10.082 3.815 4.2919 9.265 6.7444 5.5181 2.4525 12.467 2.4525z"/>
				<path id="path4164" d="m885.33 126.32q-0.61313 1.1581-1.7712 1.1581-0.88563 0-2.3162-1.2262-1.3625-1.2944-3.7469-2.7931-2.3844-1.5669-5.995-2.8612-3.5425-1.2944-8.7881-1.2944t-9.265 1.4988q-3.9512 1.4988-6.6762 4.0875-2.6569 2.5888-4.0875 5.995-1.3625 3.4062-1.3625 7.1531 0 4.905 2.0438 8.1069 2.1119 3.2019 5.5181 5.45t7.6981 3.815q4.36 1.4988 8.9244 2.9975 4.5644 1.4988 8.8562 3.3381 4.36 1.7712 7.7662 4.4962t5.45 6.7444q2.1119 3.9512 2.1119 9.8781 0 6.0631-2.1119 11.445-2.0438 5.3138-5.995 9.265t-9.6738 6.2675q-5.7225 2.2481-13.08 2.2481-9.5375 0-16.418-3.3381-6.8806-3.4062-12.058-9.265l1.9075-2.9975q0.8175-1.0219 1.9075-1.0219 0.61313 0 1.5669 0.8175 0.95375 0.8175 2.3162 2.0438 1.3625 1.1581 3.27 2.5888 1.9075 1.3625 4.4281 2.5888 2.5206 1.1581 5.7906 1.9756t7.4256 0.8175q5.7225 0 10.219-1.7031 4.4962-1.7712 7.5619-4.7688 3.1338-2.9975 4.7688-7.085 1.635-4.1556 1.635-8.8562 0-5.1094-2.1119-8.3794-2.0438-3.3381-5.45-5.5181-3.4062-2.2481-7.7662-3.7469-4.2919-1.4988-8.8562-2.9294-4.5644-1.4306-8.9244-3.2019-4.2919-1.7712-7.6981-4.4962-3.4062-2.7931-5.5181-6.8806-2.0438-4.1556-2.0438-10.355 0-4.8369 1.8394-9.3331t5.3819-7.9025q3.5425-3.4744 8.72-5.5181 5.2456-2.1119 11.922-2.1119 7.4938 0 13.421 2.3844 5.995 2.3844 10.9 7.2894l-1.635 3.1338z"/>
				<path id="path4166" d="m969.35 205.21-0.13625 5.7906h-57.77v-96.397h57.77v5.7906h-50.753v38.968h42.238v5.6544h-42.238v40.194h50.889z"/>
			</g>
		</g>
	</g>
</svg>
