<svg xmlns="http://www.w3.org/2000/svg" width="24" height="24" viewBox="0 0 24 24" fill="none" stroke="currentColor" stroke-width="2" stroke-linecap="round" stroke-linejoin="round" class="">
	<rect width="24" height="24" />

	<!-- <polyline points="2,7 12,1 22,7"/>
	<polyline points="17,4 17,2 18,2 18,4"/>
	<polyline points="4,11 6,22 12,17 18,22 20,11"/> -->

	<!-- <polyline points="2,7 12,1 22,7"></polyline>
	<polyline points="17,4 17,2 18,2 18,4"></polyline>
	<polyline points="5,11 7,22 12,17 17,22 19,11"></polyline> -->

	<!-- <polyline points="2,8 12,4 22,8"></polyline>
	<polyline points="17,6 17,4 18,4 18,6"></polyline>
	<polyline points="5,11 7,20 12,17 17,20 19,11"></polyline> -->

	<polyline points="2,8 12,2 22,8"></polyline>
	<polyline points="17,5 17,3 18,3 18,5"></polyline>
	<polyline points="5,12 7,21 12,18 17,21 19,12"></polyline>
</svg>
